Patient4_TMGait_0pt6_01_right_25_EMG.mot
version=1
nRows=36
nColumns=33
inDegrees=no
endheader
time	1LAddLong	2LGlutMax	3LGlutMed	4LIliopsoas	5LSemiMemb	6LBicFemLong	7LRecFem	8LVastMed	9LVastLat	10LGasMed	11LTibAnt	12lTibPost	13LPeroneusLong	14LSol	15LExtDigLong	16LFlexDigLong	17RAddLong	18RGlutMax	19RGlutMed	20RIliopsoas	21RSemiMemb	22RBicFemLong	23RRecFem	24RVastMed	25RVastLat	26RGasMed	27RTibAnt	28RTibPost	29RPeroneusLong	30RSol	31RExtDigLong	32RFlexDigLong
30.675	-0.068665	0.1831	-0.088501	0.005188	-0.087128	-0.16678	0.050201	0.031586	0.20569	0.050354	-0.001984	-0.007782	-0.29907	0.1329	0.10681	0.002594	0.051727	-0.069122	0.018463	-0.020447	0.11749	-0.27268	0.01709	-0.023651	0.016174	-0.032349	0.019073	-0.008392	0.74265	-0.04425	0.001831	-0.011292
30.676	-0.084229	0.18051	-0.017853	-0.000916	-0.14267	-0.10178	0.068665	0.033722	0.23697	-0.001373	-0.093842	-0.013275	-0.22018	0.15015	0.067291	0.00824	0.078278	-0.052338	0.1062	-0.016479	0.18784	-0.21942	0.062103	-0.014343	0.002136	-0.012512	0.056305	-0.027008	0.47882	0.077057	0.000763	-0.007019
30.677	-0.067902	0.15884	0.030365	-0.003357	-0.15595	-0.11032	0.067902	0.028381	0.28519	-0.014648	-0.11444	-0.005035	0.13351	0.14526	0.01236	0.003052	0.049744	-0.002289	-0.031128	-0.036163	0.059662	-0.15839	-0.010223	-0.034485	0.010681	-0.000305	0.036011	-0.035706	0.2713	0.14114	-0.000458	-0.010834
30.678	-0.02594	0.09903	-0.009003	0.007782	-0.11643	-0.23377	0.028687	0.019836	0.25925	-0.046997	-0.046387	-0.005341	1.0741	0.12009	-0.07782	0.005188	0.001678	-0.019226	-0.085754	-0.027771	-0.073547	-0.11963	-0.099792	-0.032349	0.015259	-0.005035	-0.019531	0.056	0.008392	-0.076141	-0.003357	-0.013733
30.679	0.027771	0.060577	0.009308	0.002289	0.002899	-0.31342	-0.018616	-0.022125	0.29907	-0.025024	0.043793	0.007935	0.33081	0.083618	-0.25696	-0.003815	-0.00351	0.008087	-0.13748	-0.053253	0.003204	-0.14587	-0.052185	-0.028534	0.025635	0.002136	-0.014496	0.01358	0.066376	-0.10742	0.009613	-0.012207
30.68	0.053253	0.039825	0.004425	0.006561	0.11017	-0.26489	0.015106	-0.005493	0.35278	-0.040283	0.059357	0.004883	-0.12573	0.019684	-0.27039	-0.01358	0.010681	-0.052338	-0.11765	-0.063019	0.14206	-0.14664	-0.03067	-0.07019	-0.000458	0.003052	0.00824	-0.009155	0.041962	-0.09079	0.001068	-0.009613
30.681	0.03418	0.021362	0.02594	0.02243	0.16571	-0.018616	0.037537	-0.022736	0.28214	-0.049286	0.060272	0.001831	-0.18951	0.027161	-0.14771	-0.016632	0.003357	0.024261	0.003052	-0.075073	0.054321	-0.066223	0.002747	-0.095367	0.001373	0.005188	-0.003815	-0.008087	0.63416	-0.097504	0.000153	-0.012054
30.682	0.021515	0.044098	0.025635	0.029602	0.11581	0.20691	0.006561	-0.015106	0.029602	-0.021973	0.056915	-0.007935	-0.26001	0.078583	-0.035553	-0.006561	-0.035553	-0.021057	0.10025	-0.056	-0.1532	-0.026245	-0.003967	-0.076447	0.004578	0.017242	0.001526	-0.008698	0.66437	-0.10391	0.002289	-0.014343
30.683	0.02533	0.041809	0.026398	0.01709	0.079041	0.19608	0.051575	-0.012207	-0.26962	0.012512	-0.053406	0.003357	-0.12787	0.0177	-0.07431	0.004578	-0.057373	-0.024567	0.10696	-0.028687	0.012665	-0.058594	-0.062103	-0.019989	0.009766	0.008392	0.043793	-0.001526	0.10971	-0.10193	-0.002136	-0.014648
30.684	-0.00885	-0.022583	0.02121	-0.009155	0.043335	0.16235	0.055847	-0.019379	-0.38666	0.043488	-0.091248	-0.001068	0.020142	-0.026855	-0.1268	-0.000305	-0.023346	-0.045319	-0.023041	0.024719	0.11856	-0.066528	-0.019226	-0.035858	0.007782	0	0.05188	-0.003815	-0.30548	-0.14374	0.002289	-0.009613
30.685	-0.004272	-0.088806	0.010223	-0.010834	0.010071	0.20096	-0.018311	-0.016327	-0.45136	0.044098	-0.079803	0.00473	0.024414	-0.037537	-0.051117	0.001831	-0.005798	-0.049744	-0.16235	0.095062	0.069275	-0.11261	-0.042267	0.03006	0.066223	-0.001984	0.02182	-0.010223	-0.25818	-0.15335	0.000458	-0.007629
30.686	0.011902	-0.092621	0.019989	-0.005798	0.050354	0.27176	0.01236	-0.009918	-0.36987	0.033112	-0.030518	0.005035	0.02655	-0.018158	0.05249	-0.006409	-0.033264	-0.064087	-0.086517	0.045471	-0.17075	-0.063629	-0.031281	0.055695	0.089569	-0.012817	0.013733	-0.006409	-0.23392	-0.17548	0.000458	-0.006256
30.687	0	-0.053253	0.03891	-0.002594	0.11078	0.35919	0.052643	0.000763	-0.28961	0.007172	-0.026093	0.008392	0.034485	-0.035095	0.07782	0.004883	-0.028839	-0.079956	0.056763	-0.023499	-0.2739	-0.13947	0.003967	0.081024	0.074463	-0.026855	0.007935	-0.007172	-0.15808	-0.44266	-0.003052	-0.014191
30.688	-0.021667	0.015411	-0.020752	0.018311	0.059357	0.40085	0.041962	0.002441	-0.21774	-0.002747	0.004425	0.011139	0.025787	-0.037231	0.28473	-0.001221	-0.015106	-0.10315	-0.11795	0.001373	-0.002441	-0.14145	0.005188	0.006866	0.053406	-0.030212	-0.032806	-0.012512	0.24277	-0.75913	-0.001068	-0.008087
30.689	-0.018921	0.025482	-0.021362	0.02533	0.011902	0.16968	0.063629	0.041046	-0.19424	0.017395	0.027924	0.012665	0.023041	-0.019379	0.061951	0.006561	0.00473	0.002289	-0.12405	0.031433	0.086823	-0.12878	-0.014038	0.002289	0.049286	-0.026855	-0.017548	-0.001068	0.048523	-0.41458	-0.003357	-0.002899
30.69	-0.019379	-0.041809	0.12177	0.018921	-0.01236	-0.009155	0.056763	0.056152	-0.068817	0.02533	0.050354	0.013428	0.000305	-0.023651	-0.029907	0.007477	0.005188	-0.04715	-0.099792	0.14465	0.070343	-0.042877	-0.003357	-0.053864	0.04303	-0.024719	-0.002747	0.001526	-0.22644	0.53772	0.001373	0
30.691	-0.019226	-0.10773	0.23895	0.015106	0.021667	0.050964	0.15823	0.04364	-0.078583	0.033569	0.03479	0.015717	-0.029602	-0.00885	0.014038	0.001221	0.015259	-0.03891	-0.12833	0.074158	-0.022278	0.11536	0.053101	-0.071106	0.043793	-0.018921	0.013733	0.002899	-0.1355	0.69733	0.002594	-0.003357
30.692	0.00473	-0.14267	0.24841	0.00824	-0.058289	0.14496	0.1712	0.024414	-0.12634	0.031128	0.022583	0.011902	-0.012512	0.003815	0.044708	0.005493	0.045929	-0.058899	-0.14069	0.048828	-0.1059	0.071106	0.030212	-0.029144	0.055695	0.033875	0.019989	0.001984	-0.028534	0.57617	-0.001678	-0.010529
30.693	0.032196	-0.15488	0.14725	0.01236	-0.1532	-0.18204	0.12268	0.017548	-0.068817	0.037384	0.000763	0.025482	-0.031433	0.010376	0.067139	0.001068	0.055084	-0.070648	-0.21622	0.095367	-0.2594	0.041046	0.043945	-0.074768	0.048523	0.027008	0.049591	-0.001373	-0.067596	0.47119	-0.002136	-0.015106
30.694	0.040894	-0.15198	0.11108	0.000916	-0.18387	-0.21744	0.11658	0.024872	-0.057526	0.021973	-0.009766	0.017853	0.016022	-0.00824	0.068054	-0.000458	0.005341	-0.056458	-0.18982	0.050964	-0.64255	0.12512	0.068054	-0.04776	0.045776	-0.004425	0.018768	-0.01358	0.20447	0.12589	-0.00061	-0.009766
30.695	0.042114	-0.16922	0.095673	0.009613	-0.11368	-0.19104	-0.018616	-0.017853	0.013123	0.022736	0.014496	0.023956	-0.007324	-0.009613	0.036926	0.005798	-0.040283	-0.03479	-0.11276	-0.015106	0.082092	0.33203	0.045624	-0.061188	0.052338	-0.000458	-0.06073	-0.035858	0.42923	-0.1152	-0.002594	-0.011597
30.696	0.051727	-0.18265	0.059052	0.005341	0.002747	0.059814	-0.092926	-0.006409	0.11505	0.015106	0.0383	0.019684	-0.024872	-0.003052	0.023956	0.00061	-0.019226	-0.014801	-0.16022	-0.065918	0.24765	0.11749	0.062866	0.007019	0.039978	0.000763	-0.031738	-0.022583	-0.07782	-0.58273	-0.001221	-0.010681
30.697	0.023499	-0.31113	-0.02533	-0.002899	0.045929	0.27008	-0.10742	-0.009308	0.096893	0.014954	0.059509	0.016022	-0.048676	0.012512	0.084991	0.009766	-0.012207	0.018616	-0.15625	-0.097351	0.12817	0.10101	0.034943	0.048676	0.050507	0.004272	-0.014038	0.014954	-1.564	-0.34103	-0.001984	-0.011292
30.698	0.005493	-0.40497	-0.090942	-0.011292	-0.00061	0.43198	-0.1268	-0.009766	0.028229	0.014801	0.018921	0.021973	-0.035095	0.019226	0.084076	0.001831	0.004425	0.074005	-0.085602	-0.14038	0.11795	0.20828	0.057678	-0.024719	0.023193	0.01236	0.025177	-0.007172	-0.86319	-0.28214	-0.001984	-0.02121
30.699	-0.001678	-0.46707	-0.13306	-0.013733	-0.026245	0.51163	-0.065155	-0.023193	0.095215	0.020294	-0.030212	0.019836	-0.006561	0.018158	0.032959	0.004578	0.002136	0.057526	-0.07019	-0.19211	0.084534	0.21606	0.121	-0.03479	0.036621	0.021515	0.006409	-0.5658	0.030212	0.30395	0.000916	-0.014038
30.7	-0.015717	-0.42648	-0.17456	-0.010223	-0.084381	0.49545	-0.08316	-0.002747	0.26321	0.024872	0.010986	0.014343	-0.015106	0.013123	0.010529	0.002747	0.002136	0.072479	-0.069427	-0.20599	0.12985	0.24262	0.10391	-0.003052	0.029755	0.028076	-0.051727	0.093536	0.42313	0.13458	-0.00473	-0.014038
30.701	-0.013733	-0.3894	-0.18707	-0.011444	-0.017242	0.24979	-0.02655	0.033569	0.2803	0.011292	-0.035248	0.014038	0.016479	0.003815	-0.023804	0.003204	0.005798	0.06073	-0.049744	-0.099182	0.15198	0.27435	0.1149	-0.061646	0.015411	0.019073	-0.072174	0.46722	0.092926	0.21393	-0.003357	-0.007019
30.702	0.007629	-0.34546	-0.19028	-0.003967	0.040283	0.14221	0.049591	0.032349	0.18829	-0.024567	-0.095215	0.015106	0.057831	0.041351	0.031128	0.003204	0.010071	0.094299	-0.096283	0.034485	0.050964	0.21561	0.13794	-0.071716	-0.007935	0.006104	-0.072937	0.16144	0.15167	0.022888	0	-0.00473
30.703	0.028534	-0.3154	-0.18143	0.044556	0.13001	0.14786	0.041199	0.011139	0.063477	-0.027924	-0.007172	0.014801	0.055237	0.062256	-0.014648	0.00946	0.031586	0.14328	-0.070801	0.14572	-0.13367	0.12283	0.16937	-0.14572	-0.005951	0.004578	-0.086365	0.044861	0.30594	-0.010986	-0.001221	-0.011444
30.704	0.020294	-0.33875	-0.1091	0.015717	0.037994	0.2005	0.00946	-0.017548	-0.050964	-0.001984	0.020142	0.00885	-0.02121	0.03418	-0.049591	0.012512	0.057068	0.12787	-0.041656	0.19012	-0.083618	0.067139	0.18326	-0.17258	-0.017395	-0.021667	-0.057983	0.029144	0.61203	0.044098	-0.000305	-0.00946
30.705	0.008087	-0.26871	-0.14618	0.009766	-0.054016	0.21454	0.026398	-0.029144	-0.021667	0.036011	0.032654	0.012054	-0.10132	-0.005188	-0.089722	-0.005493	0.054016	0.12985	-0.13046	0.22797	0.16892	0.098419	0.17639	-0.10315	-0.006561	-0.013733	0.002441	0.018616	0.28702	0.053711	-0.002441	-0.014343
30.706	0.019836	-0.27939	-0.159	0.02121	-0.10452	-0.006409	0.056305	-0.035706	-0.018616	0.030365	0.088654	0.008545	-0.08316	-0.046387	-0.25192	-0.009613	0.06424	0.099182	-0.068207	0.19257	0.13947	0.11139	0.1445	-0.050812	0.016327	0.011597	0.015411	-0.098572	0.023499	0.052185	-0.005646	-0.00946
30.707	0.008545	-0.27557	-0.11444	0.021362	-0.019836	-0.46234	0.057068	-0.039825	0.016327	0.042267	0.1709	0.016022	-0.089111	-0.017548	-0.12665	-0.010529	0.072327	0.049896	-0.13214	0.15472	0.087433	0.037994	0.090179	-0.010223	0.037994	-0.03418	0.007782	-0.40787	-0.4863	-0.00061	-0.001831	-0.017242
30.708	0.000458	-0.16586	-0.089722	0.004883	0.040588	-0.63812	0.066528	-0.035553	0.032501	0.046692	0.29892	0.012665	-0.15991	0.013733	-0.028076	-0.005798	0.079346	0.04715	-0.051422	0.10803	0.065918	-0.057983	0.094299	0.025787	0.032806	-0.082703	0.007629	0.224	-0.51758	0.22644	-0.002441	-0.022125
30.709	-0.005646	-0.066528	-0.042725	0.021057	-0.058746	-0.63477	0.046539	-0.022736	0.014496	0.050507	0.18738	0.018921	-0.12177	0.11063	0.35568	-0.00412	0.075073	0.059357	-0.043793	0.057068	-0.002899	-0.12512	0.032349	-0.038605	0.023651	-0.024414	0.020752	0.16617	-0.20996	0.18356	-0.001068	-0.027313
30.71	-0.013123	-0.010223	-0.069733	0.01297	-0.020447	-0.59464	0.043488	-0.016022	0.023346	0.033569	-0.00061	0.016785	-0.025482	0.13702	0.12833	-0.004272	0.057983	0.11368	-0.080719	0.008698	-0.024109	-0.12268	0.060577	-0.002747	0.034485	-0.000305	0.027313	0.056915	-0.02121	-0.023041	-0.001984	-0.024872
